<svg xmlns="http://www.w3.org/2000/svg" xmlns:xlink="http://www.w3.org/1999/xlink" viewBox="0 0 50 50" width="50" height="50" preserveAspectRatio="xMidYMid meet" style="width: 100%; height: 100%; transform: translate3d(0px, 0px, 0px); content-visibility: visible;"><defs><clipPath id="__lottie_element_2"><rect width="50" height="50" x="0" y="0"></rect></clipPath><g id="__lottie_element_9"><g transform="matrix(1,0,0,1,0,1.6430225372314453)" opacity="1" style="display: block;"><path fill="rgb(255,0,0)" fill-opacity="1" d=" M43,42 C43,42 7,42 7,42 C5.9,42 5,41.1 5,40 C5,40 5,15.38 5,15.38 C5,14.27 5.9,13.38 7,13.38 C7,13.38 43,13.38 43,13.38 C44.1,13.38 45,14.27 45,15.38 C45,15.38 45,40 45,40 C45,41.1 44.1,42 43,42z"></path><g opacity="1" transform="matrix(1,0,0,1,25,25)"></g></g></g><mask id="__lottie_element_9_1" mask-type="alpha"><use xlink:href="#__lottie_element_9"></use></mask><g id="__lottie_element_15"><g transform="matrix(1,0,0,1,0,1.6430225372314453)" opacity="1" style="display: block;"><path fill="rgb(255,0,0)" fill-opacity="1" d=" M43,42 C43,42 7,42 7,42 C5.9,42 5,41.1 5,40 C5,40 5,15.38 5,15.38 C5,14.27 5.9,13.38 7,13.38 C7,13.38 43,13.38 43,13.38 C44.1,13.38 45,14.27 45,15.38 C45,15.38 45,40 45,40 C45,41.1 44.1,42 43,42z"></path><g opacity="1" transform="matrix(1,0,0,1,25,25)"></g></g></g><mask id="__lottie_element_15_1" mask-type="alpha"><use xlink:href="#__lottie_element_15"></use></mask></defs><g clip-path="url(#__lottie_element_2)"><g transform="matrix(1,0,0,1,0,1.6430225372314453)" opacity="1" style="display: block;"><g opacity="1" transform="matrix(1,0,0,1,0,0)"><path stroke-linecap="butt" stroke-linejoin="miter" fill-opacity="0" stroke-miterlimit="10" stroke="rgb(0,0,0)" stroke-opacity="1" stroke-width="2" d=" M5,14 C5,14 45,14 45,14"></path></g><g opacity="1" transform="matrix(1,0,0,1,8,11)"><path fill="rgb(0,0,0)" fill-opacity="1" d=" M0,-1 C0.5519999861717224,-1 1,-0.5519999861717224 1,0 C1,0.5519999861717224 0.5519999861717224,1 0,1 C-0.5519999861717224,1 -1,0.5519999861717224 -1,0 C-1,-0.5519999861717224 -0.5519999861717224,-1 0,-1z"></path></g><g opacity="1" transform="matrix(1,0,0,1,11,11)"><path fill="rgb(0,0,0)" fill-opacity="1" d=" M0,-1 C0.5519999861717224,-1 1,-0.5519999861717224 1,0 C1,0.5519999861717224 0.5519999861717224,1 0,1 C-0.5519999861717224,1 -1,0.5519999861717224 -1,0 C-1,-0.5519999861717224 -0.5519999861717224,-1 0,-1z"></path></g><g opacity="1" transform="matrix(1,0,0,1,14,11)"><path fill="rgb(0,0,0)" fill-opacity="1" d=" M0,-1 C0.5519999861717224,-1 1,-0.5519999861717224 1,0 C1,0.5519999861717224 0.5519999861717224,1 0,1 C-0.5519999861717224,1 -1,0.5519999861717224 -1,0 C-1,-0.5519999861717224 -0.5519999861717224,-1 0,-1z"></path></g><g opacity="1" transform="matrix(1,0,0,1,25,25)"><path stroke-linecap="butt" stroke-linejoin="miter" fill-opacity="0" stroke-miterlimit="10" stroke="rgb(0,0,0)" stroke-opacity="1" stroke-width="2" d=" M18,17 C18,17 -18,17 -18,17 C-19.104999542236328,17 -20,16.104999542236328 -20,15 C-20,15 -20,-15 -20,-15 C-20,-16.104999542236328 -19.104999542236328,-17 -18,-17 C-18,-17 18,-17 18,-17 C19.104999542236328,-17 20,-16.104999542236328 20,-15 C20,-15 20,15 20,15 C20,16.104999542236328 19.104999542236328,17 18,17z"></path></g></g><g mask="url(#__lottie_element_15_1)" style="display: block;"><g transform="matrix(1,0,0,1,0,-19.84956169128418)" opacity="1"><g opacity="1" transform="matrix(1,0,0,1,0,0)"><path stroke-linecap="round" stroke-linejoin="round" fill-opacity="0" stroke="rgb(0,0,0)" stroke-opacity="1" stroke-width="2" d=" M24,33 C24,33 13,33 13,33"></path></g><g opacity="1" transform="matrix(1,0,0,1,33.5,23)"><path stroke-linecap="round" stroke-linejoin="round" fill-opacity="0" stroke="rgb(0,0,0)" stroke-opacity="1" stroke-width="2" d=" M3.5,-3 C3.5,-3 -0.5,3 -0.5,3 C-0.5,3 -3.5,0 -3.5,0"></path></g><g opacity="1" transform="matrix(1,0,0,1,33.5,33)"><path stroke-linecap="round" stroke-linejoin="round" fill-opacity="0" stroke="rgb(0,0,0)" stroke-opacity="1" stroke-width="2" d=" M3.5,-3 C3.5,-3 -0.5,3 -0.5,3 C-0.5,3 -3.5,0 -3.5,0"></path></g><g opacity="1" transform="matrix(1,0,0,1,0,0)"><path stroke-linecap="round" stroke-linejoin="round" fill-opacity="0" stroke="rgb(0,0,0)" stroke-opacity="1" stroke-width="2" d=" M24,23 C24,23 13,23 13,23"></path></g></g></g><g mask="url(#__lottie_element_9_1)" style="display: block;"><g transform="matrix(1,0,0,1,0,9.15043830871582)" opacity="1"><g opacity="1" transform="matrix(1,0,0,1,0,0)"><path stroke-linecap="round" stroke-linejoin="round" fill-opacity="0" stroke="rgb(0,0,0)" stroke-opacity="1" stroke-width="2" d=" M24,33 C24,33 13,33 13,33"></path></g><g opacity="1" transform="matrix(1,0,0,1,0,0)"><path stroke-linecap="round" stroke-linejoin="round" fill-opacity="0" stroke="rgb(0,0,0)" stroke-opacity="1" stroke-width="2" d=" M24,23 C24,23 13,23 13,23"></path></g><g opacity="1" transform="matrix(1,0,0,1,33.5,33)"><path stroke-linecap="round" stroke-linejoin="round" fill-opacity="0" stroke="rgb(0,0,0)" stroke-opacity="1" stroke-width="2" d="M0 0"></path></g><g opacity="1" transform="matrix(1,0,0,1,33.5,23)"><path stroke-linecap="round" stroke-linejoin="round" fill-opacity="0" stroke="rgb(0,0,0)" stroke-opacity="1" stroke-width="2" d="M0 0"></path></g></g></g><g transform="matrix(1,0,0,1,25,5.15043830871582)" opacity="1" style="display: block;"></g></g></svg>